<svg width="180" height="180" viewBox="0 0 180 180" fill="none" xmlns="http://www.w3.org/2000/svg">
<rect width="180" height="180" fill="#4BCAFF"/>
<path fill-rule="evenodd" clip-rule="evenodd" d="M89.904 45C81.0184 45.0081 72.3346 47.6497 64.9498 52.5913C57.565 57.5329 51.8106 64.5525 48.4138 72.7632C45.017 80.9739 44.1301 90.0074 45.8653 98.7219C47.6005 107.436 51.8799 115.441 58.1627 121.724C64.4455 128.008 72.4498 132.288 81.1642 134.024C89.8786 135.76 98.912 134.874 107.123 131.478C115.334 128.082 122.354 122.328 127.296 114.944C132.239 107.559 134.881 98.8756 134.89 89.99C134.89 84.082 133.727 78.2318 131.467 72.7734C129.206 67.3151 125.892 62.3555 121.715 58.1777C117.538 54 112.578 50.6861 107.12 48.425C101.662 46.164 95.812 45.0001 89.904 45ZM121.337 113.58C118.437 111.2 112.732 109.41 107.037 107.03C104.17 105.93 101.37 104.661 98.652 103.23L98.586 96.72C98.586 96.72 101.117 94.7599 101.913 88.6299C103.501 89.0999 105.17 86.27 105.263 84.78C105.346 83.34 105.044 79.35 103.105 79.75C103.494 77.3938 103.674 75.0077 103.643 72.6199C103.143 67.3799 97.993 61.8699 90.069 61.8699C82.169 61.8699 77.004 67.3799 76.499 72.6199C76.4722 75.0079 76.6542 77.3937 77.043 79.75C75.099 79.35 74.797 83.34 74.89 84.78C74.978 86.27 76.642 89.0999 78.235 88.6299C79.02 94.7599 81.562 96.72 81.562 96.72L81.497 103.23C78.7797 104.659 75.9812 105.928 73.116 107.03C67.279 109.47 61.425 111.27 58.592 113.74C54.152 107.912 51.4267 100.96 50.7229 93.667C50.0191 86.3741 51.3647 79.0297 54.6084 72.46C57.852 65.8903 62.8648 60.356 69.0827 56.4805C75.3006 52.6049 82.4767 50.5419 89.8035 50.5232C97.1303 50.5045 104.317 52.531 110.554 56.3748C116.792 60.2185 121.833 65.7269 125.11 72.28C128.387 78.8331 129.77 86.1709 129.104 93.4673C128.437 100.764 125.747 107.729 121.337 113.58V113.58Z" fill="white"/>
</svg>

