<svg width="70" height="70" viewBox="0 0 70 70" fill="none" xmlns="http://www.w3.org/2000/svg">
	<path fill-rule="evenodd" clip-rule="evenodd" d="M65.61 2H4.37C3.20825 2.00792 2.09676 2.47501 1.27808 3.29932C0.459393 4.12362 -2.70031e-05 5.23825 1.1903e-09 6.40002V50.4C-2.70031e-05 51.5618 0.459393 52.6764 1.27808 53.5007C2.09676 54.325 3.20825 54.7921 4.37 54.8H17.5V68L35.53 54.8H65.61C66.7717 54.7921 67.8832 54.325 68.7019 53.5007C69.5206 52.6764 69.98 51.5618 69.98 50.4V6.40002C69.98 5.23825 69.5206 4.12362 68.7019 3.29932C67.8832 2.47501 66.7717 2.00792 65.61 2ZM61.23 46H8.75V10.8H61.23V46Z" fill="white"/>
</svg>
