<svg width="70" height="70" viewBox="0 0 70 70" fill="none" xmlns="http://www.w3.org/2000/svg">
	<path fill-rule="evenodd" clip-rule="evenodd" d="M51.612 69.98H17.4121C15.7046 69.9699 14.0707 69.2832 12.8687 68.0703C11.6667 66.8575 10.9947 65.2176 11 63.51V7.46997C10.9947 5.76243 11.6667 4.12251 12.8687 2.90967C14.0707 1.69682 15.7046 1.01005 17.4121 1H51.612C53.32 1.00847 54.9549 1.69465 56.1572 2.90784C57.3595 4.12103 58.031 5.76195 58.0241 7.46997V63.51C58.031 65.218 57.3595 66.859 56.1572 68.0721C54.9549 69.2853 53.32 69.9715 51.612 69.98V69.98ZM53.7491 7.46997C53.7509 6.90051 53.5271 6.35355 53.1266 5.94873C52.7261 5.54391 52.1815 5.31417 51.612 5.30994H17.4121C16.8426 5.31417 16.298 5.54391 15.8975 5.94873C15.497 6.35355 15.2732 6.90051 15.2751 7.46997V63.51C15.2732 64.0795 15.497 64.6264 15.8975 65.0312C16.298 65.4361 16.8426 65.6658 17.4121 65.67H51.612C52.1815 65.6658 52.7261 65.4361 53.1266 65.0312C53.5271 64.6264 53.7509 64.0795 53.7491 63.51V7.46997ZM19.549 9.62H49.471V57.05H19.5511V9.62H19.549ZM34.51 59.2C34.9368 59.1964 35.355 59.3197 35.7116 59.5541C36.0683 59.7885 36.3473 60.1234 36.5133 60.5166C36.6794 60.9098 36.7249 61.3434 36.6442 61.7625C36.5635 62.1815 36.3602 62.5672 36.06 62.8706C35.7599 63.174 35.3764 63.3814 34.9582 63.4666C34.54 63.5517 34.1059 63.5108 33.711 63.349C33.3161 63.1872 32.9782 62.9118 32.74 62.5577C32.5018 62.2036 32.3741 61.7868 32.3731 61.36C32.3712 60.7902 32.5953 60.2429 32.9962 59.838C33.3972 59.4331 33.9423 59.2037 34.5121 59.2H34.51Z" fill="white"/>
</svg>
