<svg width="19" height="19" viewBox="0 0 19 19" fill="none" xmlns="http://www.w3.org/2000/svg">
<path fill-rule="evenodd" clip-rule="evenodd" d="M18.867 8.14003C18.8669 7.97147 18.8335 7.80457 18.7687 7.64894C18.704 7.49331 18.6092 7.35196 18.4897 7.23305C18.3702 7.11413 18.2284 7.01997 18.0725 6.95595C17.9166 6.89193 17.7496 6.85934 17.581 6.86H12.004V1.28004C12.0039 1.11148 11.9705 0.944584 11.9057 0.788954C11.841 0.633325 11.7461 0.491972 11.6267 0.373061C11.5072 0.254149 11.3655 0.15998 11.2095 0.0959613C11.0536 0.0319422 10.8865 -0.000643929 10.718 1.40482e-05H8.146C7.97735 -0.000775909 7.81022 0.0317572 7.65417 0.0957172C7.49813 0.159677 7.35624 0.25377 7.23666 0.372695C7.11709 0.491619 7.02218 0.633016 6.95737 0.78871C6.89256 0.944405 6.85914 1.1114 6.85901 1.28004V6.86H1.28601C1.11745 6.85934 0.950394 6.89193 0.794464 6.95595C0.638534 7.01997 0.496788 7.11413 0.377319 7.23305C0.257851 7.35196 0.163014 7.49331 0.0982666 7.64894C0.033519 7.80457 0.000130301 7.97147 0 8.14003V10.71C-1.64142e-06 11.0514 0.135346 11.3789 0.376404 11.6207C0.617461 11.8625 0.944575 11.999 1.28601 12H6.85901V17.57C6.85901 17.9116 6.99451 18.2393 7.23578 18.4811C7.47705 18.7229 7.80439 18.8592 8.146 18.86H10.718C11.0594 18.8589 11.3865 18.7225 11.6276 18.4807C11.8687 18.2389 12.004 17.9114 12.004 17.57V12H17.577C17.9184 11.999 18.2455 11.8625 18.4866 11.6207C18.7276 11.3789 18.863 11.0514 18.863 10.71V8.14003H18.867Z" fill="white"/>
</svg>
