<svg width="70" height="70" viewBox="0 0 70 70" fill="none" xmlns="http://www.w3.org/2000/svg">
	<path fill-rule="evenodd" clip-rule="evenodd" d="M61.231 56.86V69.98L48.11 56.86H26.242C21.868 56.86 17.494 52.48 17.494 48.11V45.55L23.679 39.36H43.736C50.485 39.36 56.857 32.99 56.857 26.24V21.87H61.231C65.604 21.87 69.978 26.24 69.978 30.62V48.11C69.978 52.48 65.604 56.86 61.231 56.86ZM43.731 34.99H21.868L8.74701 48.11V34.99C4.37301 34.99 0 30.62 0 26.24V8.75C0 4.37 4.37301 0 8.74701 0H43.736C48.11 0 52.483 4.37 52.483 8.75V26.24C52.483 30.62 48.11 34.99 43.736 34.99H43.731Z" fill="#F9F9F9"/>
</svg>
