<svg width="26" height="26" viewBox="0 0 26 26" fill="none" xmlns="http://www.w3.org/2000/svg">
<path fill-rule="evenodd" clip-rule="evenodd" d="M19.7675 14.101C19.7777 13.1573 20.0272 12.2315 20.4928 11.4105C20.9584 10.5895 21.6248 9.90016 22.4295 9.40698C21.918 8.67896 21.2448 8.07938 20.4626 7.65533C19.6805 7.23129 18.8107 6.99434 17.9215 6.96301C16.0005 6.76301 14.1735 8.09302 13.2005 8.09302C12.2275 8.09302 10.7235 6.993 9.13151 7.021C8.08655 7.05056 7.06719 7.35093 6.17319 7.89276C5.2792 8.43459 4.54118 9.19931 4.03147 10.112C1.85847 13.885 3.47552 19.475 5.59452 22.535C6.63052 24.035 7.86552 25.715 9.48752 25.655C11.0475 25.594 11.6385 24.645 13.5265 24.645C15.4145 24.645 15.9445 25.655 17.5965 25.624C19.2765 25.594 20.3415 24.098 21.3695 22.595C22.1038 21.5138 22.6791 20.3328 23.0775 19.088C22.099 18.6708 21.2642 17.9762 20.6759 17.09C20.0877 16.2037 19.7719 15.1647 19.7675 14.101ZM16.6675 4.93701C17.598 3.84545 18.0588 2.43013 17.9495 1C16.5451 1.1357 15.2459 1.80373 14.3185 2.867C13.8558 3.38292 13.5015 3.98656 13.2766 4.64209C13.0517 5.29762 12.9609 5.99166 13.0095 6.68298C13.7117 6.69154 14.4064 6.53853 15.04 6.23578C15.6735 5.93303 16.229 5.48868 16.6635 4.93701H16.6675Z" fill="#4BCAFF"/>
</svg>
