<svg width="26" height="26" viewBox="0 0 26 26" fill="none" xmlns="http://www.w3.org/2000/svg">
<path fill-rule="evenodd" clip-rule="evenodd" d="M22.034 8.71325C21.6257 8.71457 21.2345 8.87737 20.9458 9.16607C20.6571 9.45478 20.4944 9.84598 20.493 10.2543V16.4183C20.493 16.827 20.6554 17.2189 20.9444 17.5079C21.2334 17.7969 21.6253 17.9593 22.034 17.9593C22.4427 17.9593 22.8347 17.7969 23.1237 17.5079C23.4127 17.2189 23.575 16.827 23.575 16.4183V10.2543C23.5737 9.84598 23.4109 9.45478 23.1222 9.16607C22.8335 8.87737 22.4423 8.71457 22.034 8.71325V8.71325ZM3.54102 8.71325C3.13272 8.71457 2.74153 8.87737 2.45282 9.16607C2.16411 9.45478 2.00132 9.84598 2 10.2543V16.4183C2.01024 16.8203 2.17718 17.2024 2.46515 17.4832C2.75312 17.7639 3.13934 17.921 3.5415 17.921C3.94367 17.921 4.32995 17.7639 4.61792 17.4832C4.90589 17.2024 5.07277 16.8203 5.08301 16.4183V10.2543C5.08169 9.8458 4.91881 9.45444 4.62988 9.16571C4.34096 8.87697 3.94948 8.71431 3.54102 8.71325V8.71325ZM5.85303 18.7303C5.85303 19.3435 6.09663 19.9315 6.53021 20.3651C6.9638 20.7987 7.55186 21.0423 8.16504 21.0423H8.935V24.1243C8.935 24.533 9.09736 24.9249 9.38635 25.2139C9.67535 25.5029 10.0673 25.6653 10.476 25.6653C10.8847 25.6653 11.2767 25.5029 11.5657 25.2139C11.8547 24.9249 12.017 24.533 12.017 24.1243V21.0423H13.558V24.1243C13.558 24.533 13.7204 24.9249 14.0094 25.2139C14.2984 25.5029 14.6903 25.6653 15.099 25.6653C15.5077 25.6653 15.8997 25.5029 16.1887 25.2139C16.4777 24.9249 16.64 24.533 16.64 24.1243V21.0423H17.411C18.024 21.042 18.6119 20.7983 19.0452 20.3647C19.4786 19.9312 19.722 19.3433 19.722 18.7303V10.2543H5.85303V18.7303ZM15.643 3.16327L16.618 1.29028C16.6416 1.24506 16.6463 1.19228 16.631 1.14361C16.6158 1.09495 16.5817 1.05436 16.5365 1.03076C16.5141 1.01907 16.4896 1.01193 16.4645 1.0097C16.4393 1.00747 16.414 1.01019 16.3899 1.01776C16.3412 1.03304 16.3006 1.06702 16.277 1.11224L15.287 3.01226C13.6781 2.39179 11.896 2.39179 10.287 3.01226L9.297 1.11224C9.28607 1.08851 9.27043 1.06725 9.25104 1.04974C9.23164 1.03223 9.20893 1.01883 9.1842 1.01037C9.15948 1.00191 9.1333 0.998586 9.10724 1.00055C9.08118 1.00251 9.05577 1.00972 9.03259 1.02179C9.00941 1.03385 8.98897 1.05052 8.97241 1.07074C8.95586 1.09095 8.94353 1.1143 8.93628 1.1394C8.92902 1.1645 8.92696 1.1908 8.93018 1.21673C8.93339 1.24266 8.94185 1.26771 8.95502 1.29028L9.93005 3.16327C8.83403 3.65927 7.88571 4.43163 7.17816 5.4046C6.47061 6.37757 6.02812 7.51772 5.89404 8.71325H19.677C19.5431 7.51793 19.1009 6.37791 18.3937 5.40496C17.6866 4.43202 16.7387 3.65954 15.643 3.16327V3.16327ZM9.70605 7.51928C9.48485 7.51948 9.26854 7.45407 9.08453 7.3313C8.90053 7.20852 8.75704 7.03392 8.6723 6.82959C8.58756 6.62526 8.56535 6.40037 8.60846 6.18341C8.65157 5.96644 8.75807 5.76713 8.91449 5.61071C9.07091 5.4543 9.27022 5.34779 9.48718 5.30468C9.70415 5.26158 9.92897 5.28385 10.1333 5.36859C10.3376 5.45333 10.5122 5.59675 10.635 5.78076C10.7578 5.96477 10.8232 6.18107 10.823 6.40228C10.8227 6.69844 10.705 6.98241 10.4955 7.19183C10.2861 7.40125 10.0022 7.51902 9.70605 7.51928V7.51928ZM15.87 7.51928C15.6488 7.51948 15.4325 7.45407 15.2485 7.3313C15.0645 7.20852 14.921 7.03392 14.8363 6.82959C14.7516 6.62526 14.7294 6.40037 14.7725 6.18341C14.8156 5.96644 14.9221 5.76713 15.0785 5.61071C15.2349 5.4543 15.4342 5.34779 15.6512 5.30468C15.8681 5.26158 16.093 5.28385 16.2973 5.36859C16.5016 5.45333 16.6762 5.59675 16.799 5.78076C16.9218 5.96477 16.9872 6.18107 16.987 6.40228C16.9867 6.69844 16.869 6.98241 16.6595 7.19183C16.4501 7.40125 16.1662 7.51902 15.87 7.51928V7.51928Z" fill="white"/>
</svg>
