<svg width="137" height="68" viewBox="0 0 137 68" fill="none" xmlns="http://www.w3.org/2000/svg">
<g>
<path d="M11.4766 23.3301C12.4844 23.3301 13.4043 23.5469 14.2363 23.9805C15.0684 24.4141 15.7832 25.0586 16.3809 25.9141C16.9785 26.7696 17.4414 27.8301 17.7695 29.0957C18.1094 30.3614 18.2793 31.8262 18.2793 33.4903C18.2793 35.1778 18.1094 36.6602 17.7695 37.9375C17.4414 39.2032 16.9727 40.2637 16.3633 41.1192C15.7539 41.9746 15.0215 42.6192 14.166 43.0528C13.3105 43.4864 12.3672 43.7032 11.3359 43.7032C10.6797 43.7032 10.0938 43.6328 9.57812 43.4922C9.07422 43.3516 8.62305 43.1641 8.22461 42.9297C7.82617 42.6954 7.47461 42.4317 7.16992 42.1387C6.87695 41.834 6.60742 41.5176 6.36133 41.1895H5.99219L5.0957 43.3516H1V16H6.36133V22.3633C6.36133 22.75 6.34961 23.1719 6.32617 23.6289C6.30273 24.0743 6.2793 24.4903 6.25586 24.877C6.2207 25.334 6.18555 25.7911 6.15039 26.2481H6.36133C6.60742 25.8379 6.88867 25.4571 7.20508 25.1055C7.52148 24.7539 7.88477 24.4493 8.29492 24.1914C8.7168 23.9219 9.19141 23.711 9.71875 23.5586C10.2461 23.4063 10.832 23.3301 11.4766 23.3301ZM9.66602 27.6192C9.06836 27.6192 8.55859 27.7305 8.13672 27.9532C7.72656 28.1641 7.39258 28.4864 7.13477 28.92C6.87695 29.3536 6.68945 29.9043 6.57227 30.5723C6.45508 31.2286 6.38477 31.9961 6.36133 32.875V33.4551C6.36133 34.4043 6.41406 35.2481 6.51953 35.9864C6.63672 36.7246 6.82422 37.3457 7.08203 37.8496C7.33984 38.3418 7.67969 38.7168 8.10156 38.9746C8.53516 39.2325 9.06836 39.3614 9.70117 39.3614C10.7676 39.3614 11.5469 38.8575 12.0391 37.8496C12.543 36.8301 12.7949 35.3536 12.7949 33.42C12.7949 31.4864 12.543 30.0391 12.0391 29.0782C11.5469 28.1055 10.7559 27.6192 9.66602 27.6192ZM32.8705 43.3516L31.8334 40.6797H31.6752C31.2885 41.2071 30.9018 41.6641 30.5151 42.0508C30.1284 42.4258 29.7065 42.7364 29.2495 42.9825C28.7924 43.2286 28.2768 43.4102 27.7026 43.5274C27.1401 43.6446 26.4838 43.7032 25.7338 43.7032C24.937 43.7032 24.1987 43.5801 23.519 43.334C22.8393 43.0762 22.2475 42.6954 21.7436 42.1914C21.2514 41.6758 20.8647 41.0313 20.5834 40.2578C20.3022 39.4727 20.1616 38.5469 20.1616 37.4805C20.1616 35.3946 20.8295 33.8594 22.1655 32.875C23.5014 31.8789 25.4995 31.3282 28.1596 31.2227L31.2885 31.1172V29.6407C31.2885 28.8321 31.0541 28.2344 30.5854 27.8477C30.1166 27.461 29.4604 27.2676 28.6166 27.2676C27.7729 27.2676 26.9467 27.3907 26.1381 27.6368C25.3412 27.8828 24.5385 28.211 23.7299 28.6211L21.9897 25.0704C22.9741 24.5196 24.0639 24.086 25.2592 23.7696C26.4545 23.4532 27.7084 23.295 29.0209 23.295C31.4702 23.295 33.3452 23.8692 34.6459 25.0176C35.9584 26.1661 36.6147 27.9121 36.6147 30.2559V43.3516H32.8705ZM31.2885 34.2461L29.5131 34.3164C28.7983 34.3399 28.1948 34.4336 27.7026 34.5977C27.2104 34.7618 26.812 34.9844 26.5073 35.2657C26.2143 35.5352 25.9975 35.8633 25.8569 36.25C25.728 36.625 25.6635 37.0469 25.6635 37.5157C25.6635 38.336 25.8627 38.9219 26.2612 39.2735C26.6596 39.6133 27.1811 39.7832 27.8256 39.7832C28.3178 39.7832 28.7748 39.7012 29.1967 39.5371C29.6186 39.3614 29.9819 39.1094 30.2866 38.7813C30.603 38.4414 30.8491 38.0313 31.0248 37.5508C31.2006 37.0586 31.2885 36.4961 31.2885 35.8633V34.2461Z" fill="white"/>
<path d="M53.2977 43.3516H38.8485V40.1875L46.8817 27.795H39.3934V23.6993H52.9637V27.1797L45.1942 39.2559H53.2977V43.3516ZM55.4788 18.6192C55.4788 18.1153 55.555 17.6993 55.7073 17.3711C55.8597 17.0313 56.0648 16.7618 56.3226 16.5625C56.5921 16.3516 56.9027 16.2051 57.2542 16.1231C57.6175 16.0411 57.9984 16 58.3968 16C58.7952 16 59.1702 16.0411 59.5218 16.1231C59.8734 16.2051 60.178 16.3516 60.4359 16.5625C60.7054 16.7618 60.9163 17.0313 61.0687 17.3711C61.2327 17.6993 61.3148 18.1153 61.3148 18.6192C61.3148 19.1114 61.2327 19.5274 61.0687 19.8672C60.9163 20.2071 60.7054 20.4825 60.4359 20.6934C60.178 20.8926 59.8734 21.0391 59.5218 21.1328C59.1702 21.2149 58.7952 21.2559 58.3968 21.2559C57.9984 21.2559 57.6175 21.2149 57.2542 21.1328C56.9027 21.0391 56.5921 20.8926 56.3226 20.6934C56.0648 20.4825 55.8597 20.2071 55.7073 19.8672C55.555 19.5274 55.4788 19.1114 55.4788 18.6192ZM61.0687 43.3516H55.7073V23.6993H61.0687V43.3516ZM82.322 43.3516H76.9607V31.8731C76.9607 30.4551 76.7439 29.3946 76.3103 28.6914C75.8884 27.9766 75.2087 27.6192 74.2712 27.6192C73.5681 27.6192 72.9822 27.7598 72.5134 28.0411C72.0447 28.3223 71.6697 28.7383 71.3884 29.2891C71.1189 29.8399 70.9255 30.5196 70.8084 31.3282C70.6912 32.1368 70.6326 33.0625 70.6326 34.1055V43.3516H65.2712V23.6993H69.367L70.0877 26.2129H70.3865C70.6677 25.709 71.0076 25.2754 71.406 24.9121C71.8162 24.5489 72.2615 24.25 72.742 24.0157C73.2224 23.7813 73.7322 23.6114 74.2712 23.5059C74.8103 23.3887 75.3611 23.3301 75.9236 23.3301C76.8845 23.3301 77.7576 23.4707 78.5427 23.752C79.3279 24.0215 80.0017 24.4493 80.5642 25.0352C81.1267 25.6211 81.5603 26.3711 81.865 27.2852C82.1697 28.1875 82.322 29.2715 82.322 30.5371V43.3516ZM102.662 23.7344V26.6524L99.7961 27.5489C100.031 27.9473 100.195 28.3633 100.289 28.7969C100.383 29.2188 100.429 29.6758 100.429 30.168C100.429 31.1641 100.271 32.0782 99.9543 32.9102C99.6379 33.7305 99.1691 34.4336 98.548 35.0196C97.927 35.6055 97.1477 36.0625 96.2102 36.3907C95.2727 36.7071 94.1828 36.8653 92.9406 36.8653C92.6711 36.8653 92.3781 36.8536 92.0617 36.8301C91.7453 36.795 91.5109 36.7598 91.3586 36.7246C91.1242 36.9239 90.9367 37.1348 90.7961 37.3575C90.6672 37.5684 90.6027 37.8262 90.6027 38.1309C90.6027 38.377 90.6789 38.5762 90.8313 38.7286C90.9836 38.8692 91.1828 38.9864 91.4289 39.0801C91.675 39.1621 91.9621 39.2207 92.2902 39.2559C92.6184 39.2793 92.9582 39.2911 93.3098 39.2911H96.3684C97.3176 39.2911 98.1672 39.4024 98.9172 39.625C99.6672 39.836 100.301 40.1641 100.816 40.6094C101.343 41.0547 101.748 41.6231 102.029 42.3145C102.31 42.9942 102.451 43.8086 102.451 44.7578C102.451 45.8711 102.228 46.8731 101.783 47.7637C101.338 48.6661 100.67 49.4278 99.7785 50.0489C98.8996 50.6817 97.8039 51.1621 96.4914 51.4903C95.1789 51.8301 93.6613 52 91.9387 52C90.6027 52 89.4367 51.8711 88.4406 51.6133C87.4445 51.3672 86.6125 51.0039 85.9445 50.5235C85.2766 50.0547 84.7727 49.4864 84.4328 48.8184C84.1047 48.1504 83.9406 47.3946 83.9406 46.5508C83.9406 45.836 84.0637 45.2149 84.3098 44.6875C84.5559 44.1602 84.884 43.709 85.2941 43.334C85.7043 42.959 86.1672 42.6543 86.6828 42.42C87.2102 42.1856 87.7492 42.0039 88.3 41.875C88.0539 41.7696 87.8078 41.6231 87.5617 41.4356C87.3273 41.2481 87.1105 41.0313 86.9113 40.7852C86.7238 40.5391 86.5656 40.2696 86.4367 39.9766C86.3195 39.6719 86.2609 39.3555 86.2609 39.0274C86.2609 38.6524 86.3137 38.3125 86.4191 38.0078C86.5363 37.7032 86.7004 37.4219 86.9113 37.1641C87.1223 36.8946 87.3859 36.6426 87.7023 36.4082C88.0188 36.1739 88.3762 35.9336 88.7746 35.6875C87.7434 35.2422 86.923 34.5274 86.3137 33.543C85.716 32.5586 85.4172 31.3985 85.4172 30.0625C85.4172 29.0078 85.5813 28.0645 85.9094 27.2325C86.2375 26.4004 86.718 25.6973 87.3508 25.1231C87.9836 24.5371 88.7688 24.0918 89.7063 23.7871C90.6438 23.4825 91.7219 23.3301 92.9406 23.3301C93.175 23.3301 93.4387 23.3477 93.7316 23.3828C94.0246 23.4063 94.3117 23.4414 94.593 23.4883C94.8859 23.5235 95.1555 23.5645 95.4016 23.6114C95.6477 23.6582 95.841 23.6993 95.9816 23.7344H102.662ZM88.5988 46.1289C88.5988 46.4219 88.6574 46.7032 88.7746 46.9727C88.9035 47.2539 89.1086 47.5 89.3898 47.711C89.6711 47.9219 90.0402 48.086 90.4973 48.2032C90.9543 48.3321 91.5168 48.3965 92.1848 48.3965C94.0129 48.3965 95.3898 48.1387 96.3156 47.6231C97.2414 47.1075 97.7043 46.4161 97.7043 45.5489C97.7043 44.8106 97.4172 44.3184 96.843 44.0723C96.2688 43.8262 95.3781 43.7032 94.1711 43.7032H91.6926C91.3762 43.7032 91.0363 43.7383 90.673 43.8086C90.3098 43.8907 89.9758 44.0254 89.6711 44.2129C89.3664 44.4004 89.1086 44.6465 88.8977 44.9512C88.6984 45.2676 88.5988 45.6602 88.5988 46.1289ZM90.5324 30.1328C90.5324 31.1993 90.7316 32.0254 91.1301 32.6114C91.5285 33.1973 92.132 33.4903 92.9406 33.4903C93.7844 33.4903 94.3938 33.1973 94.7688 32.6114C95.1438 32.0254 95.3313 31.1993 95.3313 30.1328C95.3313 29.0782 95.1438 28.2403 94.7688 27.6192C94.4055 26.9981 93.7961 26.6875 92.9406 26.6875C91.3352 26.6875 90.5324 27.836 90.5324 30.1328ZM112.771 27.1446C111.821 27.1446 111.03 27.4786 110.398 28.1465C109.777 28.8145 109.419 29.8633 109.325 31.293H116.163C116.152 30.6954 116.075 30.1446 115.935 29.6407C115.794 29.1368 115.583 28.7032 115.302 28.3399C115.021 27.9649 114.669 27.6719 114.247 27.461C113.825 27.25 113.333 27.1446 112.771 27.1446ZM113.456 43.7032C112.05 43.7032 110.755 43.4981 109.571 43.0879C108.388 42.6778 107.368 42.0625 106.513 41.2422C105.657 40.4102 104.989 39.3672 104.509 38.1133C104.04 36.8477 103.806 35.3653 103.806 33.6661C103.806 31.9434 104.023 30.4375 104.456 29.1485C104.89 27.8594 105.493 26.7871 106.267 25.9317C107.052 25.0645 107.989 24.4141 109.079 23.9805C110.181 23.5469 111.4 23.3301 112.736 23.3301C114.036 23.3301 115.208 23.5293 116.251 23.9278C117.306 24.3145 118.196 24.8887 118.923 25.6504C119.661 26.4121 120.224 27.3496 120.611 28.4629C121.009 29.5645 121.208 30.8301 121.208 32.2598V34.8614H109.22C109.243 35.6114 109.361 36.2911 109.571 36.9004C109.794 37.4981 110.099 38.0078 110.486 38.4297C110.884 38.8399 111.359 39.1563 111.909 39.3789C112.472 39.6016 113.111 39.7129 113.825 39.7129C114.423 39.7129 114.986 39.6836 115.513 39.625C116.052 39.5547 116.573 39.4551 117.077 39.3262C117.581 39.1973 118.079 39.0391 118.571 38.8516C119.064 38.6524 119.568 38.4239 120.083 38.1661V42.3145C119.614 42.5606 119.14 42.7715 118.659 42.9473C118.191 43.1114 117.693 43.252 117.165 43.3692C116.638 43.4864 116.069 43.5684 115.46 43.6153C114.851 43.6739 114.183 43.7032 113.456 43.7032ZM134.551 23.3301C134.692 23.3301 134.844 23.336 135.008 23.3477C135.184 23.3477 135.348 23.3594 135.501 23.3828C135.665 23.3946 135.811 23.4121 135.94 23.4356C136.081 23.4473 136.186 23.4649 136.256 23.4883V28.5157C136.163 28.4922 136.034 28.4688 135.87 28.4454C135.706 28.4219 135.53 28.4043 135.342 28.3926C135.167 28.3692 134.991 28.3575 134.815 28.3575C134.639 28.3457 134.493 28.3399 134.376 28.3399C133.684 28.3399 133.045 28.4278 132.46 28.6036C131.885 28.7793 131.387 29.0664 130.965 29.4649C130.555 29.8516 130.233 30.3672 129.999 31.0118C129.776 31.6446 129.665 32.4239 129.665 33.3496V43.3516H124.303V23.6993H128.364L129.155 26.6524H129.419C129.7 26.1485 130.004 25.6914 130.333 25.2813C130.661 24.8711 131.024 24.5254 131.422 24.2442C131.833 23.9512 132.29 23.7286 132.794 23.5762C133.309 23.4121 133.895 23.3301 134.551 23.3301Z" fill="#4BCAFF"/>
</g>
<g>
<path d="M58.4999 9.72261C59.3359 9.72099 60.1641 9.83309 60.9366 10.0524C61.7089 10.2716 62.4102 10.5937 62.9998 11L64.8001 9.76622C63.9727 9.19917 62.9906 8.7494 61.9095 8.44249C60.8285 8.13561 59.67 7.97766 58.4999 7.97766C57.3298 7.97766 56.1711 8.13561 55.0901 8.44249C54.0091 8.7494 53.0269 9.19917 52.1996 9.76622L53.9999 11C54.5895 10.5937 55.2908 10.2716 56.0632 10.0524C56.8356 9.83309 57.6638 9.72099 58.4999 9.72261Z" fill="#4BCAFF"/>
<path d="M48.6001 7.2993L50.4 8.53277C52.5482 7.06058 55.4618 6.23352 58.4999 6.23352C61.5379 6.23352 64.4515 7.06058 66.5998 8.53277L68.3999 7.2993C67.0999 6.40835 65.5565 5.70161 63.8578 5.21943C62.1592 4.73724 60.3386 4.48907 58.5 4.48907C56.6614 4.48907 54.8408 4.73724 53.1422 5.21943C51.4435 5.70161 49.9002 6.40835 48.6001 7.2993Z" fill="#4BCAFF"/>
<path d="M58.4999 2.74458C60.6737 2.74052 62.827 3.03197 64.8353 3.60205C66.8436 4.17213 68.6669 5.00953 70.1998 6.06577L72 4.8322C70.2272 3.61724 68.1225 2.65348 65.8061 1.99595C63.4899 1.33843 61.0072 1 58.5 1C55.9928 1 53.5102 1.33843 51.1939 1.99595C48.8775 2.65348 46.7729 3.61724 45 4.8322L46.8001 6.06577C48.3329 5.00953 50.1562 4.17213 52.1646 3.60205C54.1729 3.03197 56.3262 2.74052 58.4999 2.74458Z" fill="#4BCAFF"/>
</g>
</svg>
